<?xml version="1.0" standalone="no"?>
<!DOCTYPE svg PUBLIC "-//W3C//DTD SVG 20010904//EN"
 "http://www.w3.org/TR/2001/REC-SVG-20010904/DTD/svg10.dtd">
<svg version="1.0" xmlns="http://www.w3.org/2000/svg"
 width="100.000000pt" height="100.000000pt" viewBox="0 0 100.000000 100.000000"
 preserveAspectRatio="xMidYMid meet">

<g transform="translate(0.000000,100.000000) scale(0.100000,-0.100000)"
fill="#000000" stroke="none">
<path d="M288 792 l-208 -107 0 -58 c0 -54 2 -58 20 -52 20 6 20 2 20 -204 l0
-211 380 0 380 0 0 211 c0 206 0 210 20 204 18 -6 20 -2 20 52 l0 58 -208 108
c-115 59 -211 107 -213 107 -2 0 -97 -49 -211 -108z m395 -107 l177 -90 0
-207 0 -208 -45 0 -45 0 0 188 c0 133 -4 192 -12 200 -9 9 -80 12 -258 12
-178 0 -249 -3 -258 -12 -8 -8 -12 -67 -12 -200 l0 -188 -45 0 -45 0 0 208 0
207 178 91 c97 50 180 91 183 90 3 0 85 -41 182 -91z m75 -152 l3 -33 -260 0
-261 0 0 28 c0 16 3 32 7 36 4 3 119 5 257 4 l251 -3 3 -32z m2 -198 l0 -155
-25 0 c-24 0 -24 1 -27 98 l-3 97 -205 0 -205 0 -3 -97 c-3 -97 -3 -98 -27
-98 l-25 0 0 155 0 155 260 0 260 0 0 -155z m-275 -60 l0 -90 -90 0 -90 0 -3
79 c-2 44 -1 85 2 93 4 11 26 13 93 11 l88 -3 0 -90z m210 0 l0 -90 -90 0 -90
0 -3 79 c-2 44 -1 85 2 93 4 11 26 13 93 11 l88 -3 0 -90z"/>
<path d="M444 666 c-13 -35 3 -47 58 -44 49 3 53 5 53 28 0 23 -4 25 -53 28
-40 2 -54 -1 -58 -12z m106 -16 c0 -17 -7 -20 -50 -20 -43 0 -50 3 -50 20 0
17 7 20 50 20 43 0 50 -3 50 -20z"/>
<path d="M483 533 c9 -2 25 -2 35 0 9 3 1 5 -18 5 -19 0 -27 -2 -17 -5z"/>
<path d="M350 320 c0 -5 20 -10 45 -10 25 0 45 5 45 10 0 6 -20 10 -45 10 -25
0 -45 -4 -45 -10z"/>
<path d="M560 320 c0 -5 20 -10 45 -10 25 0 45 5 45 10 0 6 -20 10 -45 10 -25
0 -45 -4 -45 -10z"/>
</g>
</svg>
